<svg width="942" height="875" viewBox="0 0 942 875" fill="none" xmlns="http://www.w3.org/2000/svg">
<path fill-rule="evenodd" clip-rule="evenodd" d="M290.518 1.26521C220.666 2.58975 171.102 4.91909 161.575 7.29412C153.084 9.39511 132.202 17.388 115.171 25.1068C38.9497 59.5446 0 124.766 0 218.123C0 330.937 55.8822 401.548 168.288 430.733C182.407 434.433 212.816 436.214 285.384 437.722C381.401 439.731 383.721 439.96 402.283 448.044C437.974 463.618 464.73 497.417 469.667 533.179L471.987 550.078L491.289 548.023C554.527 541.263 601.326 519.112 645.113 475.219C672.314 448.044 695.368 406.252 703.02 370.49C709.388 340.711 710.326 214.15 704.451 178.844C689.839 91.3334 629.563 29.2631 538.286 7.70518C506.642 0.26039 436.691 -1.56654 290.518 1.26521ZM192.527 113.896C168.436 120.062 147.308 132.394 136.892 146.37C117.984 171.719 111.567 220.178 122.181 257.905C128.944 282.02 138.422 296.088 155.749 307.735C181.37 324.954 195.489 327.009 304.291 329.475C400.9 331.713 404.8 332.033 429.73 340.391C466.211 352.586 489.512 366.197 518.49 392.231L543.716 414.839L555.317 404.38C561.734 398.625 571.311 386.293 576.594 376.976L586.22 360.031L587.306 275.306C588.293 194.784 587.997 189.714 580.839 171.673C571.558 148.334 548.06 125.908 524.019 117.413C508.617 111.978 494.153 111.384 357.557 110.699C246.879 110.151 203.98 110.973 192.527 113.896ZM765.319 346.466C757.717 391.774 755.15 402.918 747.992 420.457L739.945 440.371L758.013 445.669C785.164 453.57 802.245 466.633 813.648 488.145C822.88 505.547 823.472 509.109 823.423 546.562C823.423 581.639 822.436 588.444 815.228 603.288C810.489 613.017 800.616 625.348 791.829 632.519C765.221 654.305 756.779 655.767 644.669 658.279C588.244 659.558 538.384 662.161 529.844 664.262C489.71 674.128 435.654 705.14 411.317 732.316L399.518 745.47L387.621 734.097C381.055 727.794 371.182 714.275 365.752 703.998L355.879 685.272L354.793 606.211C353.953 544.415 354.793 523.77 358.643 511.484C361.358 502.852 362.79 495.042 361.753 494.083C360.717 493.124 333.22 492.347 300.688 492.347H241.498L239.276 501.116C234.932 518.472 233.007 646.952 236.66 676.274C245.25 745.881 282.521 803.521 342.352 839.831C376.81 860.75 423.263 875 456.98 875H470.111L473.863 857.644C479.293 832.615 492.277 810.966 511.579 794.934C541.248 770.271 548.554 768.9 660.17 766.48C770.503 764.059 780.721 762.46 828.606 740.263C903.939 705.414 942.099 640.74 942 548.16C941.901 440.142 895.004 372.956 798.098 342.035C771.539 333.586 767.393 334.134 765.319 346.466Z" fill="#3CB179"/>
</svg>
